HIERARCHY
ROOT root
{
	OFFSET	0	13.1	24.9
	CHANNELS 6  Xposition Yposition Zposition Xrotation Yrotation Zrotation
	JOINT spine_1
	{
		OFFSET	0	9.99999	0
		CHANNELS 3  Xrotation Yrotation Zrotation
		JOINT spine_2
		{
			OFFSET	0	112	-10
			CHANNELS 3  Xrotation Yrotation Zrotation
			JOINT spine_3
			{
				OFFSET	0	206.5	19.3
				CHANNELS 3  Xrotation Yrotation Zrotation
				JOINT spine_4
				{
					OFFSET	0	110.4	14.6
					CHANNELS 3  Xrotation Yrotation Zrotation
					JOINT neck_1
					{
						OFFSET	0	71.8	-50.3
						CHANNELS 3  Xrotation Yrotation Zrotation
						JOINT neck_2
						{
							OFFSET	0	86.2	-25.8
							CHANNELS 3  Xrotation Yrotation Zrotation
							JOINT head_ee
							{
								OFFSET	0	179.8	-8.7
								CHANNELS 3  Xrotation Yrotation Zrotation
								End Site
								{
									OFFSET	1	0	0
								}
							}
						}
					}
					JOINT left_clavicle
					{
						OFFSET	-43.2	22.4	-70.8
						CHANNELS 3  Xrotation Yrotation Zrotation
						JOINT left_shoulder
						{
							OFFSET	-93.9	-5.79999	48.7
							CHANNELS 3  Xrotation Yrotation Zrotation
							JOINT left_elbow
							{
								OFFSET	-291.4	-30.8	15.2
								CHANNELS 3  Xrotation Yrotation Zrotation
								JOINT left_lowarm_twist
								{
									OFFSET	-110.7	-3.89999	13.6
									CHANNELS 3  Xrotation Yrotation Zrotation
									JOINT left_hand
									{
										OFFSET	-110.7	-3.89999	13.6
										CHANNELS 3  Xrotation Yrotation Zrotation
										JOINT left_ee
										{
											OFFSET	-80.8	-5.10001	12.1
											CHANNELS 3  Xrotation Yrotation Zrotation
											End Site
											{
												OFFSET	1	0	0
											}
										}
									}
								}
							}
						}
					}
					JOINT right_clavicle
					{
						OFFSET	43.2	22.4	-70.8
						CHANNELS 3  Xrotation Yrotation Zrotation
						JOINT right_shoulder
						{
							OFFSET	93.9	-5.79999	48.7
							CHANNELS 3  Xrotation Yrotation Zrotation
							JOINT right_elbow
							{
								OFFSET	291.4	-30.8	15.2
								CHANNELS 3  Xrotation Yrotation Zrotation
								JOINT right_lowarm_twist
								{
									OFFSET	110.7	-3.89999	13.6
									CHANNELS 3  Xrotation Yrotation Zrotation
									JOINT right_hand
									{
										OFFSET	110.7	-3.89999	13.6
										CHANNELS 3  Xrotation Yrotation Zrotation
										JOINT right_ee
										{
											OFFSET	80.8	-5.10001	12.1
											CHANNELS 3  Xrotation Yrotation Zrotation
											End Site
											{
												OFFSET	1	0	0
											}
										}
									}
								}
							}
						}
					}
				}
			}
		}
	}
	JOINT left_hip
	{
		OFFSET	-82.8	-127.5	0.300001
		CHANNELS 3  Xrotation Yrotation Zrotation
		JOINT left_knee
		{
			OFFSET	-28.2	-396.7	2.2
			CHANNELS 3  Xrotation Yrotation Zrotation
			JOINT left_ankle
			{
				OFFSET	-11.7	-411.3	35.4
				CHANNELS 3  Xrotation Yrotation Zrotation
				JOINT left_toes
				{
					OFFSET	0	-60	-88.6
					CHANNELS 3  Xrotation Yrotation Zrotation
					JOINT left_foot_ee
					{
						OFFSET	-22.5	-16.5	-42.2
						CHANNELS 3  Xrotation Yrotation Zrotation
						End Site
						{
							OFFSET	1	0	0
						}
					}
				}
			}
		}
	}
	JOINT right_hip
	{
		OFFSET	82.8	-127.5	0.300001
		CHANNELS 3  Xrotation Yrotation Zrotation
		JOINT right_knee
		{
			OFFSET	28.2	-396.7	2.2
			CHANNELS 3  Xrotation Yrotation Zrotation
			JOINT right_ankle
			{
				OFFSET	11.7	-411.3	35.4
				CHANNELS 3  Xrotation Yrotation Zrotation
				JOINT right_toes
				{
					OFFSET	0	-60	-88.6
					CHANNELS 3  Xrotation Yrotation Zrotation
					JOINT right_foot_ee
					{
						OFFSET	22.5	-16.5	-42.2
						CHANNELS 3  Xrotation Yrotation Zrotation
						End Site
						{
							OFFSET	1	0	0
						}
					}
				}
			}
		}
	}
}
MOTION
Frames: 6
Frame Time: 0.02
391.555 721.904 -1204.45 168.052192817 -68.2622506577 174.203905105 -2.98724 -0.0892055 -0.403194 -2.98715 -0.0633687 -0.408053 -2.98657 0.045257 -0.410456 -2.9868 -0.0201344 -0.412453 -3.94634 9.80534 7.38553 -3.78022 12.2662 9.12594 -0.0 0.0 -0.0 8.23413 -13.932 15.8622 -16.7158 -23.0315 56.2681 0.60692 -16.7335 0.0892633 4.22643 0.129621 -0.524164 0.607791 -8.13269 0.651217 -0.0 0.0 -0.0 11.7811 5.10889 -23.6853 -13.2857 21.1391 -53.6233 0.708514 19.3399 -0.120728 52.1639 1.12805 6.34011 2.07235 5.87186 -11.5664 0.0 0.0 0.0 22.9142 52.4844 -26.0631 -14.4266 0.320385 2.18492 -3.25719 -29.1968 0.607078 28.7222 -0.0 -0.0 -0.0 0.0 -0.0 -6.94974 -2.91559 -0.643363 1.843 0.0802693 0.271403 -12.4827 -19.533 -1.90036 18.925 -0.0 -0.0 0.0 0.0 0.0 
420.124653358 720.004 -1207.30792075 167.987291718 -70.6696810421 175.459250815 -2.4508 -0.33353 -0.860233 -2.45043 -0.278117 -0.879711 -2.44556 -0.0477548 -0.921387 -2.44669 -0.192665 -0.902284 -3.56959 10.0108 6.52806 -3.42222 13.2306 8.25282 -0.0 0.0 -0.0 9.33101 -12.5838 18.3092 -22.4702 -24.5812 55.7696 0.501137 -13.942 0.0612746 4.58207 0.138757 -0.568676 0.420377 -8.84505 -0.917756 -0.0 0.0 -0.0 10.9257 2.34983 -21.7116 -14.8052 21.1578 -53.6851 0.993919 26.2132 -0.231418 51.0334 1.04378 6.22237 1.0879 3.87737 -5.68996 0.0 0.0 0.0 24.7672 52.9263 -29.3285 -16.7852 0.32006 2.54677 -4.30909 -29.0816 0.803925 33.3409 -0.0 -0.0 -0.0 0.0 -0.0 -7.39679 -4.48494 -1.82634 1.71481 0.0744037 0.25261 -13.2282 -23.3025 -2.04553 22.725 -0.0 -0.0 0.0 0.0 0.0 
432.899173261 718.372 -1211.02821119 167.229247745 -70.1389586117 174.399705158 -2.44166 -0.363753 -0.999646 -2.44116 -0.29941 -1.02076 -2.43502 -0.0330588 -1.06325 -2.43654 -0.200555 -1.04469 -3.84375 10.1692 5.57759 -3.71897 14.3098 7.32138 -0.0 0.0 -0.0 9.36721 -10.46 18.446 -24.6489 -27.0031 55.4462 0.552349 -15.3027 0.0742038 5.67529 0.165106 -0.705838 0.891786 -9.6655 1.91466 -0.0 0.0 -0.0 10.4971 0.519901 -20.7143 -15.2568 20.9305 -53.3962 1.04464 27.3603 -0.25428 48.5916 0.869836 5.9626 1.66677 10.6635 -6.72925 0.0 0.0 0.0 19.3217 53.3855 -25.2182 -13.3762 0.315736 2.02383 -7.00969 -29.1117 1.31592 36.66 -0.0 -0.0 -0.0 0.0 -0.0 -5.25563 -4.39731 -0.405245 -3.85441 -0.139397 -0.574998 -13.7627 -28.347 -2.18781 23.5746 -0.0 -0.0 0.0 0.0 0.0 
433.020413812 718.372 -1210.2148055 167.881114855 -69.039833952 175.095206658 -2.44166 -0.363753 -0.999646 -2.44116 -0.29941 -1.02076 -2.43502 -0.0330588 -1.06325 -2.43654 -0.200555 -1.04469 -3.84375 10.1692 5.57759 -3.71897 14.3098 7.32138 -0.0 0.0 -0.0 9.36721 -10.46 18.446 -24.6489 -27.0031 55.4462 0.552349 -15.3027 0.0742038 5.67529 0.165106 -0.705838 0.891786 -9.6655 1.91466 -0.0 0.0 -0.0 10.4971 0.519901 -20.7143 -15.2568 20.9305 -53.3962 1.04464 27.3603 -0.25428 48.5916 0.869836 5.9626 1.66677 10.6635 -6.72925 0.0 0.0 0.0 19.3217 53.3855 -25.2182 -13.3762 0.315736 2.02383 -7.00969 -29.1117 1.31592 36.66 -0.0 -0.0 -0.0 0.0 -0.0 -5.25563 -4.39731 -0.405245 -3.85441 -0.139397 -0.574998 -13.7627 -28.347 -2.18781 23.5746 -0.0 -0.0 0.0 0.0 0.0 
433.072062073 718.372 -1209.83024923 168.164936225 -68.5203574072 175.399668081 -2.44166 -0.363753 -0.999646 -2.44116 -0.29941 -1.02076 -2.43502 -0.0330588 -1.06325 -2.43654 -0.200555 -1.04469 -3.84375 10.1692 5.57759 -3.71897 14.3098 7.32138 -0.0 0.0 -0.0 9.36721 -10.46 18.446 -24.6489 -27.0031 55.4462 0.552349 -15.3027 0.0742038 5.67529 0.165106 -0.705838 0.891786 -9.6655 1.91466 -0.0 0.0 -0.0 10.4971 0.519901 -20.7143 -15.2568 20.9305 -53.3962 1.04464 27.3603 -0.25428 48.5916 0.869836 5.9626 1.66677 10.6635 -6.72925 0.0 0.0 0.0 19.3217 53.3855 -25.2182 -13.3762 0.315736 2.02383 -7.00969 -29.1117 1.31592 36.66 -0.0 -0.0 -0.0 0.0 -0.0 -5.25563 -4.39731 -0.405245 -3.85441 -0.139397 -0.574998 -13.7627 -28.347 -2.18781 23.5746 -0.0 -0.0 0.0 0.0 0.0 
433.056126893 718.372 -1209.95181712 168.076784835 -68.6845661143 175.304990823 -2.44166 -0.363753 -0.999646 -2.44116 -0.29941 -1.02076 -2.43502 -0.0330588 -1.06325 -2.43654 -0.200555 -1.04469 -3.84375 10.1692 5.57759 -3.71897 14.3098 7.32138 -0.0 0.0 -0.0 9.36721 -10.46 18.446 -24.6489 -27.0031 55.4462 0.552349 -15.3027 0.0742038 5.67529 0.165106 -0.705838 0.891786 -9.6655 1.91466 -0.0 0.0 -0.0 10.4971 0.519901 -20.7143 -15.2568 20.9305 -53.3962 1.04464 27.3603 -0.25428 48.5916 0.869836 5.9626 1.66677 10.6635 -6.72925 0.0 0.0 0.0 19.3217 53.3855 -25.2182 -13.3762 0.315736 2.02383 -7.00969 -29.1117 1.31592 36.66 -0.0 -0.0 -0.0 0.0 -0.0 -5.25563 -4.39731 -0.405245 -3.85441 -0.139397 -0.574998 -13.7627 -28.347 -2.18781 23.5746 -0.0 -0.0 0.0 0.0 0.0 
